<svg xmlns="http://www.w3.org/2000/svg" width="28" height="35.046" viewBox="0 0 28 35.046">
  <g id="Icon_ionic-ios-notifications-outline" data-name="Icon ionic-ios-notifications-outline" transform="translate(-6.775 -3.93)">
    <path id="Path_661" data-name="Path 661" d="M21.763,28.336a1.134,1.134,0,0,0-1.112.893,2.2,2.2,0,0,1-.438.955,1.656,1.656,0,0,1-1.41.517,1.683,1.683,0,0,1-1.41-.517,2.2,2.2,0,0,1-.438-.955,1.134,1.134,0,0,0-1.112-.893h0a1.142,1.142,0,0,0-1.112,1.393,3.914,3.914,0,0,0,4.073,3.25,3.906,3.906,0,0,0,4.073-3.25,1.147,1.147,0,0,0-1.112-1.393Z" transform="translate(1.948 5.998)" fill="#bd202e"/>
    <path id="Path_662" data-name="Path 662" d="M34.424,29.885c-1.349-1.778-4-2.821-4-10.783,0-8.173-3.609-11.457-6.972-12.246-.315-.079-.543-.184-.543-.517V6.085A2.148,2.148,0,0,0,20.8,3.93H20.75a2.148,2.148,0,0,0-2.1,2.155v.254c0,.324-.228.438-.543.517-3.372.8-6.972,4.073-6.972,12.246,0,7.962-2.654,9-4,10.783A1.739,1.739,0,0,0,8.522,32.67H33.057A1.74,1.74,0,0,0,34.424,29.885Zm-3.416.508H10.581a.384.384,0,0,1-.289-.639,10.612,10.612,0,0,0,1.839-2.926A19.85,19.85,0,0,0,13.384,19.1c0-3.267.613-5.825,1.831-7.6A5.62,5.62,0,0,1,18.6,9.081a3.07,3.07,0,0,0,1.629-.92.693.693,0,0,1,1.042-.018,3.173,3.173,0,0,0,1.647.937,5.62,5.62,0,0,1,3.39,2.418c1.218,1.778,1.831,4.336,1.831,7.6A19.85,19.85,0,0,0,29.4,26.828,10.733,10.733,0,0,0,31.279,29.8.362.362,0,0,1,31.007,30.393Z" transform="translate(0 0)" fill="#bd202e"/>
  </g>
</svg>
