<svg xmlns="http://www.w3.org/2000/svg" width="28.25" height="32" viewBox="0 0 28.25 32">
  <path id="Icon_awesome-address-book" data-name="Icon awesome-address-book" d="M25.547,9.375a.705.705,0,0,0,.7-.7V6.328a.705.705,0,0,0-.7-.7H24.375V2.813A2.813,2.813,0,0,0,21.563,0H2.813A2.813,2.813,0,0,0,0,2.813V27.188A2.813,2.813,0,0,0,2.813,30h18.75a2.813,2.813,0,0,0,2.813-2.812V24.375h1.172a.705.705,0,0,0,.7-.7V21.328a.705.705,0,0,0-.7-.7H24.375v-3.75h1.172a.705.705,0,0,0,.7-.7V13.828a.705.705,0,0,0-.7-.7H24.375V9.375ZM12.188,7.5a3.75,3.75,0,1,1-3.75,3.75A3.753,3.753,0,0,1,12.188,7.5ZM18.75,21.375A1.229,1.229,0,0,1,17.437,22.5H6.937a1.229,1.229,0,0,1-1.312-1.125V20.25a3.69,3.69,0,0,1,3.938-3.375h.293a6.035,6.035,0,0,0,4.664,0h.293A3.69,3.69,0,0,1,18.75,20.25Z" transform="translate(1 1)" fill="none" stroke="#bd202e" stroke-width="2"/>
</svg>
