<svg xmlns="http://www.w3.org/2000/svg" width="30.757" height="30.757" viewBox="0 0 30.757 30.757">
  <path id="Icon_ionic-ios-list-box" data-name="Icon ionic-ios-list-box" d="M3.375,5.815V30.192a2.441,2.441,0,0,0,2.44,2.44H30.192a2.441,2.441,0,0,0,2.44-2.44V5.815a2.441,2.441,0,0,0-2.44-2.44H5.815A2.437,2.437,0,0,0,3.375,5.815ZM9.654,26.7A1.4,1.4,0,1,1,10.863,25.5,1.4,1.4,0,0,1,9.654,26.7Zm0-7.312a1.4,1.4,0,1,1,1.209-1.209A1.4,1.4,0,0,1,9.654,19.392Zm0-7.312a1.4,1.4,0,1,1,1.209-1.209A1.4,1.4,0,0,1,9.654,12.08ZM27.049,26.3H14.393a.987.987,0,0,1-.984-.984h0a.987.987,0,0,1,.984-.984H27.049a.987.987,0,0,1,.984.984h0A.987.987,0,0,1,27.049,26.3Zm0-7.312H14.393A.987.987,0,0,1,13.409,18h0a.987.987,0,0,1,.984-.984H27.049a.987.987,0,0,1,.984.984h0A.987.987,0,0,1,27.049,18.984Zm0-7.312H14.393a.987.987,0,0,1-.984-.984h0a.987.987,0,0,1,.984-.984H27.049a.987.987,0,0,1,.984.984h0A.987.987,0,0,1,27.049,11.672Z" transform="translate(-2.625 -2.625)" fill="none" stroke="#fff" stroke-width="1.5"/>
</svg>
